# xmcd
#
# Track frame offsets:
#	183
#	18623
#	35928
#	53760
#	69838
#	90395
#	106918
#	122715
#	135725
#	150865
#	169273
#	184443
#	199405
#	214263
#	235695
#	253083
#	269965
#	285718
#
# Disc length: 4049 seconds
#
# Revision: 5
# Processed by: cddbd v1.5.1PL0 Copyright (c) Steve Scherf et al.
# Submitted via: audiograbber 1.83.01
#
DISCID=100fcf12
DTITLE=Various Artist - Sexual Healing
DYEAR=1991
DGENRE=Soul+Jazz
TTITLE0=Marvin Gaye - Sexual Healing
TTITLE1=Luther Vandross - Never Too Much
TTITLE2=Omar - There's Nothing Like This
TTITLE3=Patti Austin and James Ingram - Baby, Come To Me
TTITLE4=Oleta Adams - Get Here
TTITLE5=Alexander O'Neal - If You Were Here Tonight
TTITLE6=Maze (feat. Frankie Beverley - Joy and Pain
TTITLE7=Percy Sledge - When a Man Loves a Woman
TTITLE8=Harold Melvin and The Blue Notes - If You Don't Know Me by Now
TTITLE9=Freddie Jackson - Rock Me Tonight (For Old Times Sake)
TTITLE10=Ashford and Simpson - Solid
TTITLE11=George McRae - Rock Your Baby
TTITLE12=Johnny Bristol - Hang On In There Baby
TTITLE13=George Michael - I Want Your Sex
TTITLE14=Barry White - I'm Gonna Love You Just A Little More Babe
TTITLE15=Major Harris - Love Won't Let Me Wait
TTITLE16=Roberta Flack and Peobo Bryson - Tonight I Celebrate My Love
TTITLE17=Boris Gardiner - I Want To Wake Up With You
EXTD=
EXTT0=Marvin Gaye
EXTT1=Luther Vandross\n\n
EXTT2=Omar
EXTT3=Patti Austin and James Ingram
EXTT4=Oleta Adams
EXTT5=Alexander O'Neal
EXTT6=Maze (Featuring Frankie Beverley)
EXTT7=Percy Sledge
EXTT8=Harold Melvin And The Blue Notes
EXTT9=Freddie Jackson
EXTT10=Asford And Simpson
EXTT11=George McRae
EXTT12=Johnny Bristol
EXTT13=George Michael
EXTT14=Barry White
EXTT15=Major Harris
EXTT16=Roberta Flack - Peabo Bryson
EXTT17=Boris Gardiner
PLAYORDER=
